<svg width="24" height="21" viewBox="0 0 24 21" fill="none" xmlns="http://www.w3.org/2000/svg">
<g clip-path="url(#clip0_31_51)">
<path d="M5.42878 1.7446C8.08862 3.7226 10.9496 7.73317 12 9.88547C13.0505 7.73333 15.9113 3.72256 18.5712 1.7446C20.4904 0.317353 23.6 -0.78697 23.6 2.72704C23.6 3.42884 23.1938 8.6225 22.9555 9.46567C22.1274 12.3971 19.1098 13.1448 16.4255 12.6923C21.1175 13.4833 22.3111 16.1034 19.7334 18.7236C14.8378 23.6998 12.697 17.4751 12.1482 15.8801C12.0477 15.5877 12.0006 15.4509 11.9999 15.5672C11.9992 15.4509 11.9522 15.5877 11.8516 15.8801C11.303 17.4751 9.16228 23.7 4.2664 18.7236C1.68864 16.1034 2.8822 13.4831 7.57428 12.6923C4.88996 13.1448 1.87228 12.3971 1.04428 9.46567C0.806033 8.62242 0.399841 3.42876 0.399841 2.72704C0.399841 -0.78697 3.50952 0.317353 5.42864 1.7446H5.42878Z" fill="black" style="fill:black;fill-opacity:1;"/>
</g>
<defs>
<clipPath id="clip0_31_51">
<rect width="24" height="21" fill="white" style="fill:white;fill-opacity:1;"/>
</clipPath>
</defs>
</svg>
